<svg xmlns="http://www.w3.org/2000/svg" width="171.724" height="172.189"><defs><style>.cls-4{stroke:#a1a1a1}.cls-4,.cls-6,.cls-9{stroke-miterlimit:10}.cls-4,.cls-9{stroke-width:.5px}.cls-3{opacity:.6}.cls-9{fill:#fff}.cls-4,.cls-6{fill:none}.cls-6{stroke:#4b528e}.cls-7{fill:#4d4d4d}.cls-8{fill:#e0e0e0}.cls-9{stroke:gray}.cls-10{fill:#666}.cls-11{fill:#4b528e}.cls-13{fill:#b31983}.cls-14{fill:#73308a}.cls-15{fill:#f93549}</style></defs><g id="Group_544" data-name="Group 544" transform="translate(-74.138 -4896.119)"><circle id="Ellipse_162" cx="80.406" cy="80.406" r="80.406" data-name="Ellipse 162" transform="translate(79.541 4901.808)" opacity=".6" stroke-width=".5" stroke-miterlimit="10" stroke="#a1a1a1" fill="#f8f8f8"/><circle id="Ellipse_163" cx="72.165" cy="72.165" r="72.165" data-name="Ellipse 163" transform="translate(87.782 4910.048)" fill="#fff" opacity=".6"/><g id="Group_522" class="cls-3" data-name="Group 522"><g id="Group_520" data-name="Group 520"><path id="Line_46" d="M0 0l77.414 140.952" class="cls-4" data-name="Line 46" transform="translate(121.24 4911.737)"/><path id="Line_47" d="M140.952 0L0 77.414" class="cls-4" data-name="Line 47" transform="translate(89.471 4943.506)"/></g><path id="Line_48" d="M0 0v160.812" class="cls-4" data-name="Line 48" transform="translate(159.947 4901.808)"/><path id="Line_49" d="M160.812 0H0" class="cls-4" data-name="Line 49" transform="translate(79.541 4982.213)"/><g id="Group_521" data-name="Group 521"><path id="Line_50" d="M0 0l138.751 81.294" class="cls-4" data-name="Line 50" transform="translate(90.571 4941.566)"/><path id="Line_51" d="M81.294 0L0 138.751" class="cls-4" data-name="Line 51" transform="translate(119.3 4912.838)"/></g></g><circle id="Ellipse_164" cx="36.812" cy="36.812" r="36.812" data-name="Ellipse 164" transform="translate(123.134 4945.401)" fill="#f7f7f7"/><path id="Path_939" d="M152.9 5017.8l-18.564-61.5 61.494 20.811-21.681 21.069z" class="cls-6" data-name="Path 939"/><g id="Group_530" class="cls-3" data-name="Group 530"><path id="Path_940" d="M139.026 5056.781a.3.3 0 0 0-.041-.017l-.09-.028-.205-.064h-.014l-.027-.009h-.006a.013.013 0 0 1-.008-.016l.609-1.945a.013.013 0 0 1 .016-.008l.348.109a.265.265 0 0 0 .3-.139.269.269 0 0 0-.133-.362h-.022l-.134-.042-2.083-.653-.059-.018-.07-.022a.583.583 0 0 0-.083 0 .265.265 0 0 0-.238.207.268.268 0 0 0 .136.292.393.393 0 0 0 .047.019l.03.009.306.1a.012.012 0 0 1 .008.016l-.609 1.945a.012.012 0 0 1-.015.008h-.005l-.329-.1h-.007a.264.264 0 1 0-.156.5l.075.023 2.11.661.075.024.069.021a.264.264 0 0 0 .2-.486zm-.9-.3a.012.012 0 0 1-.016.008l-.578-.181c-.015-.005-.015-.005-.01-.02l.6-1.908.01-.034a.013.013 0 0 1 .016-.008l.585.183a.013.013 0 0 1 .008.016z" class="cls-7" data-name="Path 940"/><g id="Group_525" data-name="Group 525"><g id="Group_523" data-name="Group 523"><path id="Path_941" d="M107.175 4925.988l-.4-.031-.494-.022-.356-.017a.25.25 0 0 0-.054 0 .308.308 0 0 0-.2.1.312.312 0 0 0-.076.238.092.092 0 0 0 0 .023v.026l.041.4.05.361c-.175-.013-.34-.022-.476-.033l-.222-.017a.392.392 0 0 0-.416.43l.041.4.05.361-.476-.033-.221-.018a.385.385 0 1 0-.058.767l.4.031.494.023.356.018a.5.5 0 0 0 .054 0 .314.314 0 0 0 .272-.35v-.039l-.045-.385v-.006a.259.259 0 0 0-.005-.037l-.019-.158-.023-.2.437.02.355.017a.257.257 0 0 0 .055 0 .308.308 0 0 0 .2-.1.317.317 0 0 0 .078-.2v-.043l-.042-.438-.05-.362c.175.014.34.023.476.034l.221.017a.385.385 0 1 0 .058-.767z" class="cls-8" data-name="Path 941"/><path id="Path_942" d="M107.175 4925.988l-.4-.031-.494-.022-.356-.017a.25.25 0 0 0-.054 0 .308.308 0 0 0-.2.1.312.312 0 0 0-.076.238.092.092 0 0 0 0 .023v.026l.041.4.05.361c-.175-.013-.34-.022-.476-.033l-.222-.017a.392.392 0 0 0-.416.43l.041.4.05.361-.476-.033-.221-.018a.385.385 0 1 0-.058.767l.4.031.494.023.356.018a.5.5 0 0 0 .054 0 .314.314 0 0 0 .272-.35v-.039l-.045-.385v-.006a.259.259 0 0 0-.005-.037l-.019-.158-.023-.2.437.02.355.017a.257.257 0 0 0 .055 0 .308.308 0 0 0 .2-.1.317.317 0 0 0 .078-.2v-.043l-.042-.438-.05-.362c.175.014.34.023.476.034l.221.017a.385.385 0 1 0 .058-.767z" class="cls-7" data-name="Path 942"/></g><g id="Group_524" data-name="Group 524"><path id="Path_943" d="M108.7 4927.361l-.4-.031-.493-.022-.356-.017a.332.332 0 0 0-.054 0 .312.312 0 0 0-.273.341v.051l.042.4.049.361-.475-.033-.222-.017a.392.392 0 0 0-.417.43l.042.4.049.361c-.174-.013-.339-.023-.475-.034l-.222-.017a.385.385 0 1 0-.057.767l.4.031.493.022.355.017a.345.345 0 0 0 .055 0 .319.319 0 0 0 .2-.1.315.315 0 0 0 .075-.246v-.039l-.045-.386V4929.558l-.02-.158-.022-.2.437.021.356.018a.333.333 0 0 0 .054 0 .309.309 0 0 0 .274-.306.055.055 0 0 0 0-.018v-.025l-.043-.439-.049-.361.475.033.222.017a.385.385 0 1 0 .057-.767z" class="cls-8" data-name="Path 943"/><path id="Path_944" d="M108.7 4927.361l-.4-.031-.493-.022-.356-.017a.332.332 0 0 0-.054 0 .312.312 0 0 0-.273.341v.051l.042.4.049.361-.475-.033-.222-.017a.392.392 0 0 0-.417.43l.042.4.049.361c-.174-.013-.339-.023-.475-.034l-.222-.017a.385.385 0 1 0-.057.767l.4.031.493.022.355.017a.345.345 0 0 0 .055 0 .319.319 0 0 0 .2-.1.315.315 0 0 0 .075-.246v-.039l-.045-.386V4929.558l-.02-.158-.022-.2.437.021.356.018a.333.333 0 0 0 .054 0 .309.309 0 0 0 .274-.306.055.055 0 0 0 0-.018v-.025l-.043-.439-.049-.361.475.033.222.017a.385.385 0 1 0 .057-.767z" class="cls-7" data-name="Path 944"/></g></g><g id="Group_526" data-name="Group 526"><path id="Path_945" d="M233.664 4965.234l-.963-3.75a.345.345 0 0 0-.666.171l.964 3.75a.345.345 0 0 0 .665-.171z" class="cls-7" data-name="Path 945"/><path id="Path_946" d="M234.573 4965.085l-.174-.725a2.118 2.118 0 0 0 .337-.056 1.254 1.254 0 0 0 .479-2.259 1.27 1.27 0 0 0-1.085-.176 1.835 1.835 0 0 0-.334.124l-.171-.713a.341.341 0 0 0-.664.158l.19.8.084.35a.31.31 0 0 0 .206.222.338.338 0 0 0 .308-.053 1.938 1.938 0 0 1 .325-.2.729.729 0 0 1 .116-.052l.045-.013a.631.631 0 0 1 .314 1.222.648.648 0 0 1-.083.015h-.034a1.911 1.911 0 0 1-.451 0 .338.338 0 0 0-.28.11.308.308 0 0 0-.071.283l.181.705.1.416a.342.342 0 0 0 .665-.159z" class="cls-7" data-name="Path 946"/></g><path id="Path_947" d="M88.589 4960.055a.326.326 0 0 0-.244.062.622.622 0 0 0-.058.044c-.054.049-.1.09-.154.143a1.229 1.229 0 0 1-.554.319 2.882 2.882 0 0 1-.565.031h-.046v-.018l.13-.441.051-.172.012-.038a.334.334 0 0 0-.19-.4.348.348 0 0 0-.455.135.366.366 0 0 0-.025.062l-.02.065-.175.59-.087-.047a1.573 1.573 0 0 1-.364-.264 1.231 1.231 0 0 1-.292-.569c-.02-.077-.036-.133-.051-.2a.344.344 0 0 0-.193-.262.324.324 0 0 0-.417.154l-.018.038-.008.029a.409.409 0 0 0-.006.121 2.422 2.422 0 0 0 .07.347 2.118 2.118 0 0 0 .173.424 2 2 0 0 0 .737.766 2.253 2.253 0 0 0 .215.114l.051.023-.067.228-.056-.009a2.444 2.444 0 0 0-.242-.022 2.009 2.009 0 0 0-1.036.242 2.043 2.043 0 0 0-.375.262 2.214 2.214 0 0 0-.248.252.375.375 0 0 0-.061.1l-.009.028-.006.042a.323.323 0 0 0 .266.356.343.343 0 0 0 .3-.114c.052-.052.1-.09.154-.143a1.223 1.223 0 0 1 .555-.319 1.544 1.544 0 0 1 .449-.023l.1.008-.142.48-.051.175a.308.308 0 0 0-.013.066.349.349 0 0 0 .308.362.336.336 0 0 0 .377-.233l.048-.161.04-.134.1-.352v-.018l.014.007.027.015a2.916 2.916 0 0 1 .456.334 1.24 1.24 0 0 1 .276.5.691.691 0 0 1 .018.065c.021.075.037.131.052.2a.344.344 0 0 0 .194.259.322.322 0 0 0 .416-.151l.017-.038.009-.028a.4.4 0 0 0 .005-.12 2.264 2.264 0 0 0-.071-.344 2.357 2.357 0 0 0-.044-.135 2 2 0 0 0-.867-1.049c-.058-.035-.2-.1-.293-.142l-.02-.01.076-.257h.022c.1.015.256.039.324.041a1.99 1.99 0 0 0 1.033-.237 2.058 2.058 0 0 0 .376-.262c.035-.03.068-.061.1-.094.051-.049.1-.1.146-.155a.42.42 0 0 0 .061-.1l.008-.028.006-.041a.323.323 0 0 0-.249-.359z" class="cls-7" data-name="Path 947"/><path id="Path_948" d="M215.056 4931.1l.262-.388a.178.178 0 0 0 .034-.129.2.2 0 0 0-.084-.112l-.4-.252a.2.2 0 0 0-.031-.018.175.175 0 0 0-.234.079.167.167 0 0 0 .005.151l-.025.007-.044.012-.121.022h-.018a.087.087 0 0 1-.06-.023.091.091 0 0 1-.026-.086v-.023a.341.341 0 0 1 .049-.073l1.38-1.565a.558.558 0 0 0 .075-.163.744.744 0 0 0-.254-.879.648.648 0 0 1-.667-.589.637.637 0 0 0-.261-.112.624.624 0 0 0-.99-.646.31.31 0 1 0 .279.553.742.742 0 0 1 .1-.033.715.715 0 0 1-.167.357l-1.3 1.479a.313.313 0 0 0 .469.414l1.3-1.476.026-.03a.131.131 0 0 1 .2.173l-.027.031-1.3 1.474a.321.321 0 1 0 .468.439l1.318-1.493.024-.027a.131.131 0 0 1 .2.173l-.026.03-1.316 1.492a.645.645 0 0 0-.046.066.967.967 0 0 0-.132.3.763.763 0 0 0 .2.648.806.806 0 0 0 .769.138h.013l.047-.011a.169.169 0 0 0 .055.148.175.175 0 0 0 .246-.02.194.194 0 0 0 .01-.038z" class="cls-7" data-name="Path 948"/><g id="Group_527" data-name="Group 527"><path id="Path_949" d="M179.338 5055.927a.884.884 0 0 0-.424 1.544 3.419 3.419 0 0 1-.572.149 2.886 2.886 0 0 1-1.717-.192.275.275 0 0 0-.409.286.269.269 0 0 0 .085.156.207.207 0 0 0 .024.022 2.754 2.754 0 0 0 2.1.386 2.874 2.874 0 0 0 1.759-.933l.02-.028a.884.884 0 0 0-.864-1.39zm.2 1.19a.324.324 0 1 1 .265-.373.323.323 0 0 1-.262.373z" class="cls-7" data-name="Path 949"/><path id="Path_950" d="M177.036 5057.267a.884.884 0 0 0 .424-1.544 3.455 3.455 0 0 1 .571-.149 2.89 2.89 0 0 1 1.718.192.276.276 0 0 0 .324-.442.2.2 0 0 0-.025-.021 2.744 2.744 0 0 0-2.1-.387 2.873 2.873 0 0 0-1.76.934l-.019.027a.884.884 0 0 0 .864 1.39zm-.2-1.19a.323.323 0 1 1-.264.374.324.324 0 0 1 .26-.374z" class="cls-7" data-name="Path 950"/></g><g id="Group_528" data-name="Group 528"><path id="Path_951" d="M106.167 5033.923a.3.3 0 0 0 .121-.382.3.3 0 0 0-.4-.148 1.014 1.014 0 0 1-.926.06.582.582 0 0 1-.166-.144.921.921 0 0 1-.134-.8 1.717 1.717 0 0 1 .163-.324l.011-.019v-.009a.3.3 0 0 0-.088-.37.3.3 0 0 0-.417.055 1.516 1.516 0 0 0-.282.648 5.96 5.96 0 0 0-.081.392 1.384 1.384 0 1 0 1.11 1.433 1.312 1.312 0 0 0 0-.166 3.949 3.949 0 0 0 .716-.084 1.769 1.769 0 0 0 .373-.142zm-3.05.83a.78.78 0 1 1 1.1.073.78.78 0 0 1-1.1-.073z" class="cls-7" data-name="Path 951"/></g><path id="Path_952" d="M233.328 4999.318a.821.821 0 0 0-.4.1.483.483 0 0 0-.215.241l-.005.007-.027.112v.1a.611.611 0 0 0 .186.373c.046.046.1.085.148.128a.7.7 0 0 0-.1.276.594.594 0 0 1-.194.793.575.575 0 0 0 .019.26.611.611 0 0 0-.4.341.619.619 0 0 0 .294.74.285.285 0 1 0 .332-.463c-.03-.028-.056-.048-.068-.063a.665.665 0 0 1 .362-.016l1.759.431a.287.287 0 0 0 .136-.558l-1.755-.43-.036-.008a.121.121 0 0 1 .058-.234l.036.009 1.753.43a.307.307 0 0 0 .149 0 .293.293 0 0 0 .222-.215.289.289 0 0 0-.213-.35l-1.776-.436-.032-.007a.121.121 0 0 1-.087-.146.12.12 0 0 1 .144-.088l.036.008 1.572.386.308.075.117.088c.043.033.087.065.128.1a.272.272 0 0 0 .434-.108h.005l.011-.048a.284.284 0 0 1 0-.029.271.271 0 0 0-.108-.23l-.222-.168-.013-.01v-.008l.019-.006c.1-.028.2-.054.295-.084a.267.267 0 0 0 .193-.246.27.27 0 0 0-.152-.257.286.286 0 0 0-.195-.017q-.255.07-.513.136a3.079 3.079 0 0 1-.158-.11 6.66 6.66 0 0 0-.7-.411 4.24 4.24 0 0 0-.73-.295 1.969 1.969 0 0 0-.617-.093zm-.076.56l.005-.014c.047 0 .094-.007.14 0a1.571 1.571 0 0 1 .44.083 4.1 4.1 0 0 1 .643.269h.006v.005c-.057 0-.115 0-.172-.005-.124-.01-.249-.015-.372-.036a1.5 1.5 0 0 1-.588-.219c-.037-.025-.068-.055-.102-.083z" class="cls-7" data-name="Path 952"/><path id="Path_953" d="M181.631 4907.99l-.151-.911-.031-.247a.189.189 0 0 0-.067-.124.173.173 0 0 0-.131-.038l-.435.069-.752.088a.317.317 0 0 0 .05.631.321.321 0 0 0 .053 0l.268-.035-1.169 1.541-.265-.211a.317.317 0 0 0-.386.5l.271.209-.087.115-.34.427a.317.317 0 1 0 .5.386l.273-.356.02-.025.134-.176.273.217a.317.317 0 1 0 .386-.5l-.279-.215 1.188-1.562.028.186.015.117a.29.29 0 0 0 .017.066.317.317 0 0 0 .613-.151z" class="cls-7" data-name="Path 953"/><path id="Path_954" d="M87.929 5002.659a.563.563 0 0 0 .179-.05h.01a.593.593 0 0 0 .333-.589c0-.04 0-.08-.008-.121a.347.347 0 0 0-.01-.056 1.026 1.026 0 0 0-.879-.817 4.35 4.35 0 0 0-.367-.06h-.01c-.156-.023-.315-.032-.473-.041h-.016l-.354-.019h-.05l.17-.1.181-.109c.139-.085.274-.175.4-.272l.009-.006c.189-.14.264-.2.293-.228a1.025 1.025 0 0 0 .385-1.136.5.5 0 0 0-.018-.055 2.178 2.178 0 0 0-.05-.11.6.6 0 0 0-.573-.36h-.011a.555.555 0 0 0-.182.041h-.006a.622.622 0 0 0-.068.033 1.579 1.579 0 0 0-.438.377.7.7 0 0 0-.088.116.275.275 0 0 0 .12.4.216.216 0 0 0 .2-.01.921.921 0 0 0 .25-.178c.05-.048.1-.1.154-.142a.15.15 0 0 1 .192-.014.2.2 0 0 1 .076.1l.005.023v.008a.165.165 0 0 1 0 .07.262.262 0 0 1-.068.108c-.04.038-.092.072-.147.114a7.457 7.457 0 0 1-.625.442c-.112.071-.224.14-.337.208q-.492.3-1 .555c-.133.068-.27.131-.406.194-.036.017-.088.046-.124.064a.258.258 0 0 0-.152.2.282.282 0 0 0 0 .132.256.256 0 0 0 .084.137.323.323 0 0 0 .273.087c.187-.022.374-.031.562-.035.346-.007.691 0 1.037.009.132.006.334.017.466.026q.381.026.76.091c.068.012.13.017.183.031a.294.294 0 0 1 .111.063.162.162 0 0 1 .036.06v.008l.007.023a.209.209 0 0 1-.018.127.153.153 0 0 1-.176.079 4.838 4.838 0 0 1-.2-.052.932.932 0 0 0-.3-.038.22.22 0 0 0-.179.085.277.277 0 0 0 .083.408.851.851 0 0 0 .133.06 1.577 1.577 0 0 0 .565.122.63.63 0 0 0 .075 0h.008z" class="cls-7" data-name="Path 954"/><path id="Path_955" d="M215.053 5036.7a.318.318 0 0 0-.184.41 1.016 1.016 0 0 1 .05.185.606.606 0 0 1 .02.143.123.123 0 0 1 0 .028.173.173 0 0 1-.065.129.171.171 0 0 1-.234-.009 1 1 0 0 1-.072-.131l-.008-.014a6.681 6.681 0 0 1-.277-.658l-.07-.192c-.18-.495-.27-.743-.475-.843a1.509 1.509 0 0 0-1.57.088 1.383 1.383 0 0 0-.124.1l-.014.014-.014.013a1.544 1.544 0 0 0-.107.122 1.509 1.509 0 0 0-.123 1.568c.1.207.341.3.832.494l.19.074a6.747 6.747 0 0 1 .652.291.191.191 0 0 1 .1.139v.006a.19.19 0 0 1-.219.216.942.942 0 0 1-.218-.06.318.318 0 0 0-.241.588 1.121 1.121 0 0 0 1.1-.064c.243-.223.286-.595.128-1.1 0 .014.007.028.01.042a.327.327 0 0 0-.08-.145.391.391 0 0 0-.055-.045 4.542 4.542 0 0 0-.674-.342c-.159-.068-.316-.129-.46-.185l-.143-.057a.67.67 0 0 1-.265-1.059l.033-.036a.455.455 0 0 1 .037-.032.67.67 0 0 1 1.053.288l.053.145c.053.145.111.3.175.464a4.448 4.448 0 0 0 .327.682.308.308 0 0 0 .038.049.381.381 0 0 0 .1.08l.039.012h.012a.987.987 0 0 0 1.065-.117 1.121 1.121 0 0 0 .089-1.1.317.317 0 0 0-.411-.181z" class="cls-7" data-name="Path 955"/><g id="Group_529" data-name="Group 529"><path id="Path_956" d="M141.127 4909.068a4.792 4.792 0 0 0-.726-.991c-.046-.049-.089-.106-.145-.168a.75.75 0 0 0 .137-.112c.243-.243.062-.365 0-.615-.012-.047-.032-.026-.057-.068-.062-.1.075-.451-.4-.37-.381.065-.435.119-.54.337-.058.123-.3.195-.266.326l.01.034a.312.312 0 0 0-.3.3l.043 1.056-.483-.942a.282.282 0 0 0-.245-.143.483.483 0 0 0-.347.093l-.407.492a.291.291 0 0 0 .107.408.349.349 0 0 0 .432-.078l.1-.119.924 1.8a.325.325 0 0 0 .592-.155l-.082-2.024a1.17 1.17 0 0 0 .117 0c.092.106.189.213.291.325a4.6 4.6 0 0 1 .681.856 1.454 1.454 0 0 1 .113.284c.017.063-.015.035-.017.058a1.474 1.474 0 0 1-.46-.072.246.246 0 0 0-.044-.008.326.326 0 0 0-.137.006.308.308 0 0 0-.23.368.293.293 0 0 0 .178.2c.01 0 .072.021.139.038.046.014.1.027.155.039h.019a.991.991 0 0 0 .845-.136.62.62 0 0 0 .151-.661 1.792 1.792 0 0 0-.148-.358zm-1.22-1.6a.211.211 0 1 1 .151-.258.211.211 0 0 1-.151.26z" class="cls-7" data-name="Path 956"/><path id="Path_957" d="M139.667 4906.551a.747.747 0 1 0 .911.534.747.747 0 0 0-.911-.534zm.24.919a.211.211 0 1 1 .151-.258.211.211 0 0 1-.151.258z" class="cls-7" data-name="Path 957"/></g></g><g id="Group_532" class="cls-3" data-name="Group 532"><circle id="Ellipse_165" cx="5.438" cy="5.438" r="5.438" class="cls-9" data-name="Ellipse 165" transform="translate(74.388 4976.678)"/><g id="Group_531" data-name="Group 531"><path id="Path_958" d="M78.4 4982.578h-.86l-.425.806h-.327l1.385-2.534h.3l.319 2.534H78.5zm-.031-.27l-.061-.519a5.585 5.585 0 0 1-.05-.606c-.043.1-.09.2-.14.3s-.194.374-.432.822z" class="cls-10" data-name="Path 958"/><path id="Path_959" d="M80.487 4982.649a.7.7 0 0 1-.244.568 1.046 1.046 0 0 1-.685.2 1.912 1.912 0 0 1-.324-.025 1.007 1.007 0 0 1-.262-.085v-.294a1.266 1.266 0 0 0 .589.146.7.7 0 0 0 .446-.131.438.438 0 0 0 .164-.36.346.346 0 0 0-.091-.238 1.357 1.357 0 0 0-.339-.244 1.073 1.073 0 0 1-.363-.295.6.6 0 0 1-.1-.348.673.673 0 0 1 .229-.528.868.868 0 0 1 .6-.2 1.477 1.477 0 0 1 .32.033 1.439 1.439 0 0 1 .313.113l-.115.26a1.049 1.049 0 0 0-.256-.1 1.019 1.019 0 0 0-.262-.038.557.557 0 0 0-.373.12.408.408 0 0 0-.142.327.393.393 0 0 0 .03.161.382.382 0 0 0 .093.125 1.679 1.679 0 0 0 .246.165 2.128 2.128 0 0 1 .345.239.624.624 0 0 1 .135.192.611.611 0 0 1 .046.237z" class="cls-10" data-name="Path 959"/><path id="Path_960" d="M82.266 4981.077a.913.913 0 0 0-.54.168 1.13 1.13 0 0 0-.378.493 1.78 1.78 0 0 0-.14.708.763.763 0 0 0 .169.518.587.587 0 0 0 .466.193 1.916 1.916 0 0 0 .558-.1v.258a1.737 1.737 0 0 1-.284.078 1.794 1.794 0 0 1-.326.025.854.854 0 0 1-.659-.259 1.006 1.006 0 0 1-.239-.707 1.952 1.952 0 0 1 .183-.841 1.4 1.4 0 0 1 .491-.594 1.239 1.239 0 0 1 .7-.205 1.274 1.274 0 0 1 .6.139l-.12.245a1.069 1.069 0 0 0-.481-.119z" class="cls-10" data-name="Path 960"/></g></g><g id="Group_534" class="cls-3" data-name="Group 534"><circle id="Ellipse_166" cx="5.438" cy="5.438" r="5.438" class="cls-9" data-name="Ellipse 166" transform="translate(234.735 4976.799)"/><g id="Group_533" data-name="Group 533"><path id="Path_961" d="M239.02 4981.934a2.035 2.035 0 0 1-.219.961 1.541 1.541 0 0 1-.626.643 1.94 1.94 0 0 1-.954.225h-.734l.645-3.05h.713a1.156 1.156 0 0 1 .875.312 1.262 1.262 0 0 1 .3.909zm-1.776 1.522a1.419 1.419 0 0 0 .741-.19 1.251 1.251 0 0 0 .489-.54 1.8 1.8 0 0 0 .17-.8.964.964 0 0 0-.215-.679.822.822 0 0 0-.63-.23h-.371l-.522 2.436z" class="cls-10" data-name="Path 961"/><path id="Path_962" d="M240.994 4982.879a.838.838 0 0 1-.294.683 1.256 1.256 0 0 1-.825.243 2.233 2.233 0 0 1-.389-.03 1.23 1.23 0 0 1-.316-.1v-.354a1.52 1.52 0 0 0 .71.175.838.838 0 0 0 .536-.157.524.524 0 0 0 .2-.433.42.42 0 0 0-.11-.287 1.646 1.646 0 0 0-.407-.293 1.3 1.3 0 0 1-.437-.355.718.718 0 0 1-.123-.419.809.809 0 0 1 .276-.635 1.045 1.045 0 0 1 .724-.246 1.813 1.813 0 0 1 .385.04 1.677 1.677 0 0 1 .376.136l-.138.313a1.218 1.218 0 0 0-.308-.125 1.2 1.2 0 0 0-.315-.047.675.675 0 0 0-.45.145.493.493 0 0 0-.17.394.469.469 0 0 0 .036.193.459.459 0 0 0 .112.151 1.97 1.97 0 0 0 .3.2 2.542 2.542 0 0 1 .415.288.733.733 0 0 1 .162.231.719.719 0 0 1 .05.289z" class="cls-10" data-name="Path 962"/><path id="Path_963" d="M243.134 4980.986a1.1 1.1 0 0 0-.649.2 1.358 1.358 0 0 0-.455.593 2.137 2.137 0 0 0-.168.853.913.913 0 0 0 .2.622.707.707 0 0 0 .56.233 2.3 2.3 0 0 0 .672-.119v.311a2.181 2.181 0 0 1-.342.094 2.294 2.294 0 0 1-.392.029 1.025 1.025 0 0 1-.793-.312 1.2 1.2 0 0 1-.288-.85 2.362 2.362 0 0 1 .22-1.013 1.7 1.7 0 0 1 .592-.714 1.479 1.479 0 0 1 .84-.247 1.533 1.533 0 0 1 .726.167l-.144.294a1.3 1.3 0 0 0-.579-.141z" class="cls-10" data-name="Path 963"/></g></g><g id="Group_536" class="cls-3" data-name="Group 536"><circle id="Ellipse_167" cx="5.438" cy="5.438" r="5.438" class="cls-9" data-name="Ellipse 167" transform="translate(154.509 4896.369)"/><g id="Group_535" data-name="Group 535"><path id="Path_964" d="M158.295 4903.224l-.321-2.51h-.016a9.081 9.081 0 0 1-.128.769l-.368 1.741h-.314l.6-2.832h.473l.288 2.333h.018l1.276-2.333h.516l-.587 2.832h-.337l.373-1.754q.13-.611.183-.76h-.012l-1.389 2.514z" class="cls-10" data-name="Path 964"/><path id="Path_965" d="M162.071 4900.646a1.022 1.022 0 0 0-.6.188 1.251 1.251 0 0 0-.422.551 1.986 1.986 0 0 0-.156.792.847.847 0 0 0 .189.578.653.653 0 0 0 .52.216 2.116 2.116 0 0 0 .623-.111v.289a1.971 1.971 0 0 1-.317.087 2.1 2.1 0 0 1-.365.027.954.954 0 0 1-.736-.289 1.122 1.122 0 0 1-.267-.79 2.185 2.185 0 0 1 .2-.94 1.585 1.585 0 0 1 .55-.664 1.382 1.382 0 0 1 .78-.228 1.408 1.408 0 0 1 .674.155l-.133.273a1.2 1.2 0 0 0-.54-.134z" class="cls-10" data-name="Path 965"/></g></g><g id="Group_538" class="cls-3" data-name="Group 538"><circle id="Ellipse_168" cx="5.438" cy="5.438" r="5.438" class="cls-9" data-name="Ellipse 168" transform="translate(154.509 5057.181)"/><g id="Group_537" data-name="Group 537"><path id="Path_966" d="M158.045 5064.271h-.389l.7-3.3h1.66l-.068.345h-1.283l-.248 1.2h1.192l-.072.345h-1.2z" class="cls-10" data-name="Path 966"/><path id="Path_967" d="M161.7 5061.265a1.193 1.193 0 0 0-.7.22 1.471 1.471 0 0 0-.492.642 2.318 2.318 0 0 0-.182.923.993.993 0 0 0 .22.674.764.764 0 0 0 .607.252 2.489 2.489 0 0 0 .727-.129v.336a2.286 2.286 0 0 1-.37.1 2.458 2.458 0 0 1-.425.032 1.111 1.111 0 0 1-.858-.338 1.3 1.3 0 0 1-.312-.92 2.56 2.56 0 0 1 .238-1.1 1.835 1.835 0 0 1 .641-.773 1.609 1.609 0 0 1 .91-.267 1.65 1.65 0 0 1 .786.181l-.156.318a1.4 1.4 0 0 0-.634-.151z" class="cls-10" data-name="Path 967"/></g></g><path id="Path_968" d="M151.075 5023.217c-.077-.082-.16-.161-.233-.249a.206.206 0 1 1 .328-.246.767.767 0 0 0 1.24 0 .206.206 0 1 1 .329.244c-.073.088-.155.167-.231.247a1.512 1.512 0 0 1 .779 1.714 1.559 1.559 0 0 1-1.322 1.2v.183h.064l.682-.008a.207.207 0 0 1 .2.139.2.2 0 0 1-.07.229.26.26 0 0 1-.126.043c-.227.006-.455.007-.682.009h-.07v.3a.538.538 0 0 1-.006.107.2.2 0 0 1-.4-.034c-.006-.1-.007-.21-.01-.315v-.065h-.067c-.2 0-.4 0-.607-.006a.205.205 0 0 1-.07-.4.3.3 0 0 1 .1-.011l.59.005h.067v-.185a1.566 1.566 0 0 1-1.294-1.39 1.511 1.511 0 0 1 .809-1.511zm.529 2.482c.027-.138.068-.265.241-.259a.228.228 0 0 1 .119.047.208.208 0 0 1 .072.2 1.135 1.135 0 0 0-.309-2.241 1.134 1.134 0 0 0-.123 2.25z" class="cls-11" data-name="Path 968"/><path id="Path_969" d="M203.347 4975.557v.352c0 .14 0 .28-.006.419a1.366 1.366 0 0 1-.254.715 1.446 1.446 0 0 1-.9.6c-.05.011-.1.018-.154.027v.151h.284a.146.146 0 1 1 0 .291h-.285v.286a.146.146 0 1 1-.291 0v-.285h-.286a.146.146 0 1 1 0-.291h.286v-.151c-.057-.01-.114-.016-.169-.03a1.441 1.441 0 0 1-1.108-1.125 1.493 1.493 0 0 1-.031-.306v-.657l-.04.04a.146.146 0 1 1-.205-.207l.288-.289a.144.144 0 0 1 .206 0l.288.289a.146.146 0 1 1-.206.206c-.011-.011-.02-.025-.031-.037l-.007.005v.65a1.17 1.17 0 0 0 .925 1.15c.03.007.061.01.093.016v-1.822l-.034.034a.146.146 0 1 1-.206-.206l.283-.284a.145.145 0 0 1 .206 0l.292.293a.146.146 0 0 1-.077.246.139.139 0 0 1-.126-.038c-.013-.012-.025-.027-.043-.047v1.827c.048-.01.1-.016.143-.03a1.155 1.155 0 0 0 .86-.952.893.893 0 0 0 .013-.171v-.663l-.007-.006a.507.507 0 0 1-.034.038.145.145 0 1 1-.206-.205l.29-.291a.144.144 0 0 1 .206 0l.287.289a.145.145 0 1 1-.205.206c-.012-.011-.022-.023-.033-.035z" class="cls-11" data-name="Path 969"/><g id="Group_539" data-name="Group 539"><circle id="Ellipse_169" cx="1.888" cy="1.888" r="1.888" class="cls-6" data-name="Ellipse 169" transform="translate(127.853 4950.303)"/><circle id="Ellipse_170" cx=".162" cy=".162" r=".162" class="cls-6" data-name="Ellipse 170" transform="translate(129.579 4952.029)"/></g><circle id="Ellipse_171" cx="9.223" cy="9.223" r="9.223" data-name="Ellipse 171" transform="translate(150.777 4972.991)" fill="#fff"/><g id="Group_543" data-name="Group 543"><path id="Path_970" d="M158.484 4982.758a3.705 3.705 0 0 1 .25-.569 2.093 2.093 0 1 1 2.532 0 3.705 3.705 0 0 1 .25.569 2.7 2.7 0 1 0-3.032 0z" class="cls-13" data-name="Path 970"/><path id="Path_971" d="M160.123 4984.158a2.091 2.091 0 1 1-1.261-2.183 3.616 3.616 0 0 1 .381-.492 2.677 2.677 0 0 0-1.2-.281 2.7 2.7 0 1 0 2.695 2.876 3.432 3.432 0 0 1-.615.08z" class="cls-14" data-name="Path 971"/><path id="Path_972" d="M161.954 4981.2a2.677 2.677 0 0 0-1.2.281 3.616 3.616 0 0 1 .381.492 2.093 2.093 0 1 1-1.262 2.183 3.432 3.432 0 0 1-.617-.08 2.7 2.7 0 1 0 2.695-2.876z" class="cls-15" data-name="Path 972"/><g id="Group_540" data-name="Group 540"><path id="Path_973" d="M158.046 4983.148a.744.744 0 0 1 .313.07 3.6 3.6 0 0 1 1.227-2.064.757.757 0 0 1-.3-.4c-.086.072-.17.148-.25.228a4.062 4.062 0 0 0-1.135 2.177.711.711 0 0 1 .145-.011z" data-name="Path 973" fill="#ee4043"/><path id="Path_974" d="M164.816 4980.986a4.1 4.1 0 0 0-4.255-.965.75.75 0 0 1 .194.5v.025a3.528 3.528 0 1 1-2.3 3.985.748.748 0 0 1-.412.123.817.817 0 0 1-.139-.013 4.089 4.089 0 1 0 6.909-3.658z" class="cls-15" data-name="Path 974"/></g><g id="Group_541" data-name="Group 541"><path id="Path_975" d="M160.414 4981.153a3.715 3.715 0 0 1 .777.905 3.664 3.664 0 0 1 .45 1.16.743.743 0 0 1 .312-.07.714.714 0 0 1 .149.015 4.062 4.062 0 0 0-1.135-2.177 3.836 3.836 0 0 0-.25-.228.755.755 0 0 1-.303.395z" data-name="Path 975" fill="#6d2c90"/><path id="Path_976" d="M161.953 4984.657a.745.745 0 0 1-.411-.123 3.528 3.528 0 1 1-2.3-3.985v-.025a.75.75 0 0 1 .194-.5 4.089 4.089 0 1 0 2.654 4.623.829.829 0 0 1-.137.01z" class="cls-14" data-name="Path 976"/></g><g id="Group_542" data-name="Group 542"><path id="Path_977" d="M161.2 4983.943a3.424 3.424 0 0 1-2.406 0 .753.753 0 0 1-.184.455 4.124 4.124 0 0 0 2.774 0 .75.75 0 0 1-.184-.455z" data-name="Path 977" fill="#b3258e"/><path id="Path_978" d="M162.891 4977.658a4.089 4.089 0 1 0-5.782 5.783c.073.073.149.142.227.209a.762.762 0 0 1 .372-.421 3.529 3.529 0 1 1 4.584 0 .756.756 0 0 1 .371.421c.078-.067.155-.136.228-.209a4.088 4.088 0 0 0 0-5.783z" class="cls-13" data-name="Path 978"/></g><path id="Path_979" d="M158.8 4983.943a.753.753 0 1 1-.751-.795.744.744 0 0 1 .313.07 3.6 3.6 0 0 1 .154-.539 1.31 1.31 0 1 0 .829 1.416 3.625 3.625 0 0 1-.545-.152z" class="cls-14" data-name="Path 979"/><path id="Path_980" d="M161.954 4982.593a1.309 1.309 0 0 0-.467.086 3.727 3.727 0 0 1 .154.539.743.743 0 0 1 .312-.07.755.755 0 1 1-.75.795 3.625 3.625 0 0 1-.545.152 1.31 1.31 0 1 0 1.3-1.5z" class="cls-15" data-name="Path 980"/><path id="Path_981" d="M159.185 4981.548a3.872 3.872 0 0 1 .4-.394.756.756 0 1 1 .828 0 3.88 3.88 0 0 1 .4.4 1.31 1.31 0 1 0-1.63 0z" class="cls-13" data-name="Path 981"/></g></g></svg>
